<svg id="appbody" viewBox="0 0 900 600" width="900" height="600" xmlns="http://www.w3.org/2000/svg" xmlns:xlink="http://www.w3.org/1999/xlink" version="1.1"><rect x="0" y="0" width="900" height="600" fill="#001220"></rect><path d="M0 362L37.5 373.7C75 385.3 150 408.7 225 395C300 381.3 375 330.7 450 329C525 327.3 600 374.7 675 395.8C750 417 825 412 862.5 409.5L900 407L900 601L862.5 601C825 601 750 601 675 601C600 601 525 601 450 601C375 601 300 601 225 601C150 601 75 601 37.5 601L0 601Z" fill="#fa7268"></path><path d="M0 471L37.5 467.5C75 464 150 457 225 462.3C300 467.7 375 485.3 450 476.2C525 467 600 431 675 408.8C750 386.7 825 378.3 862.5 374.2L900 370L900 601L862.5 601C825 601 750 601 675 601C600 601 525 601 450 601C375 601 300 601 225 601C150 601 75 601 37.5 601L0 601Z" fill="#e34c67"></path><path d="M0 498L37.5 497.3C75 496.7 150 495.3 225 486.2C300 477 375 460 450 455.5C525 451 600 459 675 474.5C750 490 825 513 862.5 524.5L900 536L900 601L862.5 601C825 601 750 601 675 601C600 601 525 601 450 601C375 601 300 601 225 601C150 601 75 601 37.5 601L0 601Z" fill="#c62368"></path></svg>